<svg width="1024" height="1024" viewBox="0 0 1024 1024" fill="none" xmlns="http://www.w3.org/2000/svg" role="img" aria-labelledby="title desc">
  <title id="title">Food Commit icon</title>
  <desc id="desc">Vector icon traced from the Food Commit logo concept: a stylized apple with leaves, a progress path with tracking nodes, and an upward goal arrow.</desc>
  <defs>
    <linearGradient id="foodCommitGradient" x1="185" y1="170" x2="805" y2="830" gradientUnits="userSpaceOnUse">
      <stop offset="0" stop-color="#A8F000"/>
      <stop offset="0.38" stop-color="#49D94D"/>
      <stop offset="0.72" stop-color="#24C99C"/>
      <stop offset="1" stop-color="#00B8D9"/>
    </linearGradient>
  </defs>
  <g>
    <path fill="url(#foodCommitGradient)" fill-rule="evenodd" d="
      M97.6 572.8 L124.8 680 L174.4 790.4 L208 838.4 L248 857.6 L275.2 856 L304 841.6 L344 792 L396.8 747.2 L422.4 758.4 L451.2 758.4 L470.4 750.4 L489.6 732.8 L504 700.8 L585.6 686.4 L636.8 667.2 L644.8 670.4 L649.6 678.4 L598.4 772.8 L571.2 809.6 L537.6 838.4 L515.2 846.4 L484.8 846.4 L427.2 833.6 L393.6 833.6 L348.8 843.2 L336 860.8 L340.8 880 L352 888 L425.6 880 L478.4 892.8 L521.6 892.8 L566.4 875.2 L609.6 835.2 L656 764.8 L692.8 683.2 L721.6 670.4 L739.2 651.2 L748.8 624 L747.2 603.2 L814.4 553.6 L936 416 L939.2 470.4 L948.8 478.4 L961.6 478.4 L971.2 470.4 L980.8 352 L971.2 342.4 L856 347.2 L849.6 369.6 L857.6 379.2 L912 385.6 L809.6 502.4 L744 558.4 L726.4 566.4 L696 550.4 L670.4 550.4 L643.2 563.2 L624 587.2 L617.6 633.6 L568 649.6 L496 662.4 L476.8 641.6 L456 630.4 L433.6 627.2 L406.4 635.2 L387.2 651.2 L376 670.4 L376 713.6 L340.8 739.2 L286.4 800 L268.8 811.2 L240 806.4 L212.8 768 L166.4 662.4 L144 572.8 L142.4 510.4 L148.8 476.8 L168 432 L204.8 390.4 L248 368 L308.8 361.6 L352 371.2 L411.2 406.4 L440 417.6 L473.6 419.2 L544 403.2 L587.2 406.4 L633.6 427.2 L662.4 457.6 L676.8 492.8 L689.6 502.4 L705.6 502.4 L718.4 492.8 L720 475.2 L696 422.4 L652.8 382.4 L592 358.4 L540.8 355.2 L456 372.8 L433.6 364.8 L374.4 328 L344 318.4 L270.4 313.6 L238.4 320 L196.8 337.6 L171.2 355.2 L140.8 387.2 L120 420.8 L107.2 451.2 L96 500.8 Z
      M688 145.6 L676.8 139.2 L662.4 139.2 L660.8 137.6 L630.4 137.6 L628.8 136 L592 137.6 L558.4 147.2 L529.6 164.8 L505.6 190.4 L488 224 L480 249.6 L478.4 265.6 L476.8 267.2 L476.8 280 L475.2 281.6 L475.2 313.6 L478.4 318.4 L489.6 324.8 L504 324.8 L505.6 326.4 L526.4 326.4 L528 328 L574.4 326.4 L590.4 323.2 L608 316.8 L624 308.8 L640 297.6 L656 281.6 L668.8 264 L678.4 244.8 L684.8 225.6 L689.6 203.2 L691.2 161.6 L692.8 160 Z
      M324.8 158.4 L321.6 163.2 L320 171.2 L321.6 172.8 L321.6 184 L326.4 206.4 L340.8 241.6 L355.2 262.4 L371.2 280 L396.8 299.2 L432 315.2 L444.8 313.6 L449.6 308.8 L449.6 289.6 L448 288 L446.4 267.2 L436.8 236.8 L417.6 204.8 L396.8 184 L371.2 168 L337.6 155.2 L331.2 155.2 Z
      M641.6 187.2 L641.6 196.8 L633.6 227.2 L620.8 249.6 L608 262.4 L592 272 L569.6 278.4 L560 278.4 L558.4 280 L524.8 280 L523.2 278.4 L526.4 267.2 L526.4 259.2 L532.8 240 L545.6 217.6 L561.6 201.6 L577.6 192 L601.6 185.6 L640 185.6 Z
      M675.2 585.6 L691.2 585.6 L700.8 590.4 L708.8 598.4 L713.6 608 L712 628.8 L700.8 641.6 L691.2 646.4 L675.2 646.4 L667.2 643.2 L656 632 L652.8 624 L652.8 608 L657.6 598.4 L665.6 590.4 Z
      M428.8 664 L449.6 665.6 L462.4 676.8 L467.2 688 L467.2 699.2 L462.4 710.4 L452.8 720 L441.6 724.8 L430.4 724.8 L419.2 720 L411.2 712 L406.4 702.4 L408 681.6 L420.8 667.2 Z
    "/>
  </g>
</svg>
